<svg aria-hidden="true" style="position: absolute; width: 0; height: 0; overflow: hidden;" version="1.1" xmlns="http://www.w3.org/2000/svg" xmlns:xlink="http://www.w3.org/1999/xlink">
<defs>
<symbol id="icon-burger" viewBox="0 0 59 32">
<path stroke-linejoin="miter" stroke-linecap="round" stroke-miterlimit="4" stroke-width="4.9231" d="M2.462 3.692h54.154"></path>
<path stroke-linejoin="miter" stroke-linecap="round" stroke-miterlimit="4" stroke-width="4.9231" d="M2.462 16h54.154"></path>
<path stroke-linejoin="miter" stroke-linecap="round" stroke-miterlimit="4" stroke-width="4.9231" d="M2.462 28.308h54.154"></path>
</symbol>
<symbol id="icon-logo" viewBox="0 0 136 32">
<path d="M0 15.451v7.756c0 1.405 1.181 2.545 2.637 2.545h7.117v-13.75l-9.755 3.449z"></path>
<path d="M10.161 12.002l3.484 5.048v8.702l-3.484-4.617v-9.133z"></path>
<path d="M14.053 9.768v15.984h9.76l-0.005-19.433-9.755 3.449z"></path>
<path d="M24.214 6.318l3.967 6.646v12.787l-3.965-6.837-0.002-12.597z"></path>
<path d="M28.588 3.907v21.845h8.406c1.456 0 2.637-1.139 2.637-2.545v-23.207l-11.043 3.907z"></path>
<path d="M48.451 6.984h9.402c2.136 0 3.846 0.577 5.099 1.759 1.282 1.155 1.909 2.694 1.909 4.591 0 1.952-0.655 3.491-1.966 4.673-1.281 1.182-3.048 1.759-5.242 1.759h-4.502v5.95h-4.7v-18.733zM53.151 15.973h4.16c1.823 0 2.934-1.017 2.934-2.584 0-1.512-1.139-2.529-2.934-2.529h-4.16v5.113z"></path>
<path d="M70.91 4.234v16.467c0 0.742 0.541 1.209 1.367 1.209 0.342 0 0.883-0.137 1.653-0.385l0.712 3.436c-1.225 0.578-2.336 0.852-3.362 0.852-2.963 0-4.929-1.924-4.929-4.783v-16.797h4.558z"></path>
<path d="M89.182 19.629h-10.484c0.37 1.65 1.567 2.667 3.077 2.667 1.425 0 2.45-0.523 3.048-1.595l4.045 0.797c-1.225 2.859-3.761 4.316-7.094 4.316-2.108 0-3.903-0.687-5.356-2.034-1.453-1.374-2.194-3.134-2.194-5.278 0-2.117 0.741-3.876 2.194-5.251s3.247-2.062 5.384-2.062c2.080 0 3.817 0.66 5.214 2.007s2.136 3.107 2.165 5.306v1.127zM78.784 16.935h5.897c-0.428-1.429-1.51-2.172-2.877-2.172-1.339 0-2.593 0.825-3.020 2.172z"></path>
<path d="M101.244 11.519l-0.199 4.398h-0.826c-3.276 0-4.928 1.732-4.928 5.168v4.658h-4.558v-14.562h4.558v3.059c1.168-1.897 2.82-2.832 4.928-2.832 0.37 0 0.712 0.027 1.025 0.11z"></path>
<path d="M117.616 4.234v21.168h-4.558v-1.182c-1.14 1.072-2.621 1.594-4.444 1.594-1.937 0-3.59-0.687-4.957-2.034-1.339-1.374-2.023-3.134-2.023-5.278 0-2.117 0.684-3.876 2.023-5.251 1.367-1.374 3.020-2.062 4.957-2.062 1.823 0 3.304 0.522 4.444 1.595v-8.55h4.558zM112.003 21.086c0.713-0.687 1.054-1.539 1.054-2.584 0-1.017-0.342-1.87-1.054-2.557-0.684-0.687-1.51-1.017-2.45-1.017-2.023 0-3.447 1.484-3.447 3.574 0 2.117 1.424 3.574 3.447 3.574 0.941 0 1.767-0.33 2.45-0.99z"></path>
<path d="M135.619 11.192l-9.275 20.808h-4.928l3.162-7.065-6.102-13.744h4.901l3.565 8.466 3.777-8.466h4.901z"></path>
</symbol>
<symbol id="icon-anex" viewBox="0 0 181 32">
<path d="M108.214 2.676l-2.629 1.119v5.048h-4.027l0.107 4.812 3.92 0.108 0.001 5.135c0.001 5.845 0.141 7.056 1.027 8.914 0.627 1.315 2.6 3.675 3.072 3.675 0.129 0 0.83-0.737 1.557-1.638 2.072-2.569 1.961-2.241 1.066-3.143-1.342-1.353-1.37-1.511-1.37-7.572v-5.384h3.824v-4.906h-3.816l-0.052-3.643-0.052-3.643-2.629 1.119zM11.706 4.684c-5.091 0.707-9.332 4.399-10.642 9.267-0.4 1.487-0.446 4.577-0.090 6.025 0.141 0.571 0.603 1.758 1.027 2.638 0.641 1.329 1.067 1.89 2.514 3.31 2.689 2.64 5.18 3.668 8.9 3.673 2.844 0.004 5.239-0.756 7.495-2.379 0.487-0.351 0.939-0.637 1.003-0.637s0.999 0.64 2.078 1.422l1.961 1.422 0.050-6.247c0.028-3.436 0.028-8.995 0-12.353l-0.050-6.106-4.095 3.022-0.902-0.68c-2.47-1.862-6.149-2.807-9.248-2.376zM28.914 17.133v12.466h4.971v-7.762c0-5.403 0.068-7.987 0.225-8.503 0.294-0.969 1.568-2.381 2.54-2.817 1.785-0.8 4.525-0.238 5.732 1.175 1.069 1.251 1.063 1.197 1.063 9.881v8.026h5.162l-0.004-7.501c-0.002-4.125-0.090-8.095-0.195-8.822-0.436-3.013-2.57-5.856-5.378-7.169-3.177-1.485-7.051-1.217-9.846 0.68-0.557 0.379-0.927 0.517-1.078 0.405-0.127-0.094-0.897-0.701-1.711-1.348l-1.482-1.178v12.466zM60.751 5.185c-2.159 0.515-3.857 1.508-5.759 3.37-1.365 1.336-1.891 2.009-2.436 3.119-0.955 1.948-1.324 3.525-1.324 5.661 0 3.416 1.059 6.013 3.479 8.535 1.708 1.779 3.268 2.777 5.368 3.433 4.605 1.437 9.469 0.228 12.892-3.203 0.926-0.929 2.332-2.939 2.46-3.519 0.022-0.099-0.562-0.519-1.298-0.934s-1.696-0.959-2.134-1.21l-0.796-0.456-0.598 1.046c-0.77 1.346-2.026 2.527-3.407 3.202-1.416 0.692-3.98 0.868-5.657 0.387-0.593-0.17-1.079-0.377-1.079-0.461 0-0.123 12.403-11.029 14.099-12.397 0.477-0.386 0.478-0.392 0.145-1.038-0.583-1.128-3.303-3.604-4.817-4.385-2.668-1.376-6.282-1.831-9.137-1.15zM166.961 17.429v12.548h5.354v-15.965l0.504-0.998c0.945-1.871 3.069-2.795 5.084-2.213 0.547 0.159 1.010 0.271 1.028 0.25 0.156-0.181 2.18-4.319 2.18-4.456 0-0.098-0.495-0.371-1.099-0.606-0.897-0.349-1.486-0.429-3.203-0.438-2.371-0.012-3.34 0.235-5.16 1.317l-1.098 0.653-1.677-1.32c-0.923-0.726-1.73-1.32-1.794-1.32s-0.117 5.647-0.117 12.548zM76.523 5.169c0 0.055 1.377 2.47 3.059 5.366s3.059 5.304 3.059 5.351c0 0.082-7.105 12.41-7.88 13.671l-0.379 0.618 6.033-0.104 2.458-4.246c1.352-2.335 2.529-4.364 2.617-4.508 0.112-0.183 0.95 1.109 2.784 4.293l2.625 4.555h2.957c1.626 0 2.922-0.064 2.878-0.142s-1.876-3.278-4.074-7.111c-2.198-3.833-3.98-7.022-3.961-7.087s1.331-2.376 2.915-5.137c1.584-2.761 2.933-5.157 2.998-5.325 0.107-0.274-0.179-0.3-2.82-0.253l-2.938 0.052-1.547 2.69c-0.851 1.48-1.584 2.727-1.628 2.771s-0.811-1.187-1.703-2.736l-1.622-2.816-2.916-0.002c-1.604-0.001-2.916 0.044-2.916 0.099zM126.99 5.532c-2.373 0.219-2.417 0.232-3.987 1.153-3.091 1.813-5.181 3.896-5.181 5.164 0 0.319-0.070 0.579-0.156 0.579-0.255 0-0.8 1.947-0.8 2.857 0 0.463-0.093 0.934-0.207 1.047-0.334 0.329-0.434 2.354-0.186 3.761 0.596 3.384 2.322 5.96 5.35 7.989 0.955 0.64 1.443 0.839 2.195 0.898 0.532 0.042 1.114 0.206 1.293 0.367s0.407 0.242 0.505 0.182c0.099-0.060 0.418 0.109 0.71 0.377l0.531 0.486 3.289-0.093c1.809-0.051 3.452-0.176 3.652-0.278s0.907-0.426 1.571-0.721c0.665-0.295 1.582-0.878 2.039-1.297s1.138-0.998 1.516-1.288c0.377-0.29 0.686-0.637 0.686-0.773s0.179-0.405 0.397-0.601c0.485-0.433 1.391-2.273 1.239-2.516-0.061-0.097 0.022-0.306 0.183-0.465 0.425-0.419 0.755-2.332 0.464-2.679-0.207-0.247-0.119-0.35 0.25-0.292 0.437 0.068-0.045-4.003-0.6-5.073-0.189-0.363-0.4-0.888-0.469-1.167s-0.299-0.56-0.509-0.626c-0.26-0.081-0.382-0.286-0.382-0.637 0-0.285-0.171-0.682-0.38-0.883-1.010-0.972-1.136-1.057-1.36-0.92-0.164 0.1-0.2 0.051-0.118-0.161 0.078-0.2-0.080-0.47-0.46-0.786-0.318-0.264-0.643-0.481-0.721-0.481s-0.431-0.255-0.784-0.566-0.735-0.566-0.849-0.566c-0.113 0-0.618-0.216-1.122-0.481-0.851-0.447-0.956-0.461-1.479-0.204-0.32 0.158-0.61 0.202-0.671 0.104-0.060-0.095-0.018-0.173 0.094-0.173s0.202-0.064 0.202-0.142c-0.001-0.201-1.175-0.257-1.42-0.068-0.112 0.087-0.979 0.207-1.926 0.268-1.549 0.098-1.661 0.084-1.126-0.143 0.815-0.346 1.871-1.509 1.269-1.398-0.079 0.015-1.223 0.126-2.543 0.248zM144.594 13.513c0.002 4.126 0.090 8.095 0.195 8.822 0.967 6.677 8.874 10.313 14.786 6.8 0.617-0.367 1.208-0.667 1.311-0.667s0.846 0.535 1.65 1.189c0.804 0.654 1.569 1.254 1.7 1.332 0.19 0.114 0.239-2.419 0.239-12.417v-12.56h-5.354l-0.002 7.878c-0.002 7.869-0.002 7.879-0.451 8.829-0.778 1.649-2.195 2.54-4.041 2.54-1.318 0-2.266-0.377-3.225-1.283-1.474-1.391-1.45-1.228-1.455-10.086l-0.004-7.878h-5.354l0.004 7.501zM127.382 7.028c0 0.040-0.212 0.112-0.472 0.162s-0.427 0.016-0.371-0.072c0.098-0.156 0.844-0.235 0.844-0.089zM126.044 7.333c0 0.104-0.086 0.189-0.191 0.189s-0.191-0.085-0.191-0.189 0.086-0.189 0.191-0.189c0.105 0 0.191 0.085 0.191 0.189zM123.462 8.693c-0.315 0.223-1.068 0.896-1.673 1.497s-1.099 1.020-1.099 0.93c0-0.089 0.214-0.362 0.475-0.606s0.476-0.542 0.478-0.66c0.006-0.37 1.056-1.348 1.545-1.439 0.833-0.155 0.856-0.131 0.275 0.278zM16.622 10.236c1.473 0.668 3.115 2.31 3.837 3.837 0.453 0.958 0.515 1.321 0.513 2.978-0.002 1.525-0.087 2.096-0.444 2.979-0.617 1.527-2.202 3.169-3.817 3.953-1.204 0.585-1.38 0.616-3.376 0.612-1.933-0.004-2.201-0.050-3.254-0.555-6.236-2.991-5.649-12.084 0.915-14.177 0.504-0.161 1.487-0.24 2.622-0.211 1.532 0.039 2.002 0.13 3.004 0.584zM66.915 10.348c0.552 0.235 0.998 0.481 0.991 0.546s-2.476 2.268-5.486 4.894l-5.472 4.776-0.285-0.53c-0.38-0.708-0.514-3.44-0.23-4.692 0.497-2.192 2.641-4.452 4.933-5.2 1.52-0.496 4.13-0.4 5.55 0.206zM132.157 10.651c4.806 1.409 7.185 6.828 4.973 11.326-1.527 3.103-5.324 5.060-8.639 4.452-6.479-1.189-9.152-8.659-4.806-13.429 2.078-2.281 5.483-3.225 8.472-2.349zM121.176 24.706c0.176 0.281-0.028 0.433-0.394 0.295-0.169-0.064-0.254-0.202-0.188-0.306 0.155-0.247 0.423-0.242 0.582 0.011z"></path>
</symbol>
<symbol id="icon-prom" viewBox="0 0 116 32">
<path d="M1.313 12.407l-0.048 12.178h25.139v-24.356h-25.042l-0.048 12.178zM20.736 12.407v6.667h-13.712v-13.333h13.712v6.667zM74.899 7.433c-3.367 0.711-6.266 3.31-7.104 6.37-0.294 1.073-0.324 3.252-0.061 4.362 0.639 2.695 3.058 5.238 5.977 6.282 1.534 0.549 5.154 0.543 6.704-0.010 1.48-0.529 2.613-1.268 3.806-2.485 1.697-1.73 2.327-3.332 2.331-5.926 0.003-1.995-0.471-3.506-1.545-4.924-2.32-3.064-6.238-4.486-10.108-3.669zM42.165 7.602c-1.308 0.287-2.19 0.761-2.864 1.539l-0.465 0.537v-1.983h-5.119v23.111h5.119l0.003-4.222 0.003-4.222 0.378 0.574c0.557 0.845 2.326 1.636 3.958 1.77 3.615 0.295 6.758-1.435 8.34-4.591 2.028-4.044 0.773-8.894-2.946-11.382-1.691-1.132-4.302-1.592-6.408-1.13zM63.184 7.601c-1.030 0.317-2.124 1.063-2.584 1.761l-0.366 0.556-0.003-1.111-0.003-1.111h-5.119v16.711h5.119v-4.412c0-5.094 0.13-5.819 1.228-6.856 0.898-0.848 2.073-1.212 3.747-1.159l1.332 0.042v-4.593l-1.28-0.036c-0.704-0.020-1.636 0.073-2.071 0.207zM97.136 7.586c-1.044 0.362-1.929 0.962-2.338 1.583l-0.376 0.572-0.003-1.022-0.003-1.022h-5.119v16.711h5.119l0.004-5.111c0.004-5.612 0.067-5.985 1.175-6.978 0.42-0.376 0.673-0.444 1.65-0.444 0.896 0 1.246 0.080 1.564 0.356 0.853 0.74 0.908 1.155 0.908 6.839v5.339h5.099l0.056-5.2c0.052-4.868 0.080-5.245 0.438-5.911 0.52-0.969 1.383-1.511 2.405-1.511 1.059 0 1.796 0.44 2.245 1.341 0.336 0.674 0.362 1.109 0.362 6.004v5.277h5.148l-0.123-12.356-0.473-1.094c-1.136-2.628-3.153-3.773-6.279-3.565-2.051 0.136-3.102 0.538-4.199 1.605-0.621 0.604-0.937 0.807-0.994 0.637-0.209-0.633-1.617-1.73-2.576-2.007-1.181-0.341-2.774-0.359-3.689-0.041zM78.919 12.078c1.645 0.812 2.566 2.231 2.578 3.973 0.027 3.79-4.398 5.811-7.295 3.331-1.101-0.942-1.533-1.86-1.538-3.265-0.006-1.598 0.593-2.769 1.867-3.651 1.189-0.823 3.156-0.997 4.389-0.389zM44.734 12.223c1.993 0.81 3.020 2.837 2.502 4.939-0.179 0.724-0.431 1.12-1.174 1.843-0.795 0.774-1.112 0.954-1.983 1.13-3.419 0.69-6.284-2.083-5.357-5.184 0.337-1.127 1.26-2.153 2.386-2.65 0.913-0.403 2.729-0.442 3.627-0.077z"></path>
</symbol>
</defs>
</svg>
